HIERARCHY
ROOT Hips
{
  OFFSET 5.72205e-005 65.662 3.42586
  CHANNELS 6 Xposition Yposition Zposition Zrotation Xrotation Yrotation
  JOINT Chest
  {
    OFFSET 0 8.7983 -4.7612
    CHANNELS 6 Xposition Yposition Zposition Zrotation Xrotation Yrotation
    JOINT Chest2
    {
      OFFSET 0 8.0291 0.4195
      CHANNELS 6 Xposition Yposition Zposition Zrotation Xrotation Yrotation
      JOINT Chest3
      {
        OFFSET 0 9.9351 -2.2114
        CHANNELS 6 Xposition Yposition Zposition Zrotation Xrotation Yrotation
        JOINT Neck
        {
          OFFSET 0 22.3885 -0.4656
          CHANNELS 6 Xposition Yposition Zposition Zrotation Xrotation Yrotation
          JOINT Head
          {
            OFFSET -0.0001 12.643 3.4389
            CHANNELS 6 Xposition Yposition Zposition Zrotation Xrotation Yrotation
            End Site
            {
              OFFSET 0.0001 17.6655 0.5274
            }
          }
        }
        JOINT LeftCollar
        {
          OFFSET 2.2603 21.606 7.4023
          CHANNELS 6 Xposition Yposition Zposition Zrotation Xrotation Yrotation
          JOINT LeftShoulder
          {
            OFFSET 13.5163 -1.1332 -5.0146
            CHANNELS 6 Xposition Yposition Zposition Zrotation Xrotation Yrotation
            JOINT LeftElbow
            {
              OFFSET -0.0995 -28.05 -0.2431
              CHANNELS 6 Xposition Yposition Zposition Zrotation Xrotation Yrotation
              JOINT LeftWrist
              {
                OFFSET 0.0679 -23.3996 -0.1402
                CHANNELS 6 Xposition Yposition Zposition Zrotation Xrotation Yrotation
                JOINT LeftFinger1
                {
                  OFFSET 0.7932 -9.069 2.5189
                  CHANNELS 6 Xposition Yposition Zposition Zrotation Xrotation Yrotation
                  JOINT LeftFinger11
                  {
                    OFFSET -0.8272 -3.3923 0.5977
                    CHANNELS 6 Xposition Yposition Zposition Zrotation Xrotation Yrotation
                    JOINT LeftFinger12
                    {
                      OFFSET -0.5649 -2.3158 0.4082
                      CHANNELS 6 Xposition Yposition Zposition Zrotation Xrotation Yrotation
                      End Site
                      {
                        OFFSET -0.4919 -1.6479 0.2673
                      }
                    }
                  }
                }
                JOINT LeftFinger2
                {
                  OFFSET 0.9159 -9.2044 0.2193
                  CHANNELS 6 Xposition Yposition Zposition Zrotation Xrotation Yrotation
                  JOINT LeftFinger21
                  {
                    OFFSET 0.0117 -4.1944 -0.0248
                    CHANNELS 6 Xposition Yposition Zposition Zrotation Xrotation Yrotation
                    JOINT LeftFinger22
                    {
                      OFFSET 0.0071 -2.3249 -0.0142
                      CHANNELS 6 Xposition Yposition Zposition Zrotation Xrotation Yrotation
                      End Site
                      {
                        OFFSET -0.1475 -2.0882 0.0028
                      }
                    }
                  }
                }
                JOINT LeftFinger3
                {
                  OFFSET 0.6113 -8.7231 -2.0637
                  CHANNELS 6 Xposition Yposition Zposition Zrotation Xrotation Yrotation
                  JOINT LeftFinger31
                  {
                    OFFSET -0.1927 -3.8059 -0.2383
                    CHANNELS 6 Xposition Yposition Zposition Zrotation Xrotation Yrotation
                    JOINT LeftFinger32
                    {
                      OFFSET -0.1091 -2.1688 -0.1362
                      CHANNELS 6 Xposition Yposition Zposition Zrotation Xrotation Yrotation
                      End Site
                      {
                        OFFSET -0.2358 -1.9176 -0.0906
                      }
                    }
                  }
                }
                JOINT LeftFinger4
                {
                  OFFSET -0.6151 -8.0947 -3.5641
                  CHANNELS 6 Xposition Yposition Zposition Zrotation Xrotation Yrotation
                  JOINT LeftFinger41
                  {
                    OFFSET -0.4882 -2.341 -0.6462
                    CHANNELS 6 Xposition Yposition Zposition Zrotation Xrotation Yrotation
                    JOINT LeftFinger42
                    {
                      OFFSET -0.3575 -1.7167 -0.4742
                      CHANNELS 6 Xposition Yposition Zposition Zrotation Xrotation Yrotation
                      End Site
                      {
                        OFFSET -0.4187 -1.5237 -0.3496
                      }
                    }
                  }
                }
                JOINT LeftFinger0
                {
                  OFFSET -1.42 -1.8761 1.4223
                  CHANNELS 6 Xposition Yposition Zposition Zrotation Xrotation Yrotation
                  JOINT LeftFinger01
                  {
                    OFFSET -1.1471 -3.4929 2.6334
                    CHANNELS 6 Xposition Yposition Zposition Zrotation Xrotation Yrotation
                    JOINT LeftFinger02
                    {
                      OFFSET -0.823 -2.3 1.6571
                      CHANNELS 6 Xposition Yposition Zposition Zrotation Xrotation Yrotation
                      End Site
                      {
                        OFFSET -0.5822 -1.6914 1.1582
                      }
                    }
                  }
                }
              }
            }
          }
        }
        JOINT RightCollar
        {
          OFFSET -2.2603 21.606 7.4023
          CHANNELS 6 Xposition Yposition Zposition Zrotation Xrotation Yrotation
          JOINT RightShoulder
          {
            OFFSET -13.5187 -1.1334 -5.0155
            CHANNELS 6 Xposition Yposition Zposition Zrotation Xrotation Yrotation
            JOINT RightElbow
            {
              OFFSET 0.0994 -28.0499 -0.2431
              CHANNELS 6 Xposition Yposition Zposition Zrotation Xrotation Yrotation
              JOINT RightWrist
              {
                OFFSET -0.0679 -23.3996 -0.1402
                CHANNELS 6 Xposition Yposition Zposition Zrotation Xrotation Yrotation
                JOINT RightFinger1
                {
                  OFFSET -0.7932 -9.0691 2.5189
                  CHANNELS 6 Xposition Yposition Zposition Zrotation Xrotation Yrotation
                  JOINT RightFinger11
                  {
                    OFFSET 0.8272 -3.3923 0.5977
                    CHANNELS 6 Xposition Yposition Zposition Zrotation Xrotation Yrotation
                    JOINT RightFinger12
                    {
                      OFFSET 0.565 -2.3158 0.4082
                      CHANNELS 6 Xposition Yposition Zposition Zrotation Xrotation Yrotation
                      End Site
                      {
                        OFFSET 0.4919 -1.6479 0.2673
                      }
                    }
                  }
                }
                JOINT RightFinger2
                {
                  OFFSET -0.916 -9.2044 0.2193
                  CHANNELS 6 Xposition Yposition Zposition Zrotation Xrotation Yrotation
                  JOINT RightFinger21
                  {
                    OFFSET -0.0117 -4.1944 -0.0248
                    CHANNELS 6 Xposition Yposition Zposition Zrotation Xrotation Yrotation
                    JOINT RightFinger22
                    {
                      OFFSET -0.0071 -2.3249 -0.0142
                      CHANNELS 6 Xposition Yposition Zposition Zrotation Xrotation Yrotation
                      End Site
                      {
                        OFFSET 0.1475 -2.0882 0.0028
                      }
                    }
                  }
                }
                JOINT RightFinger3
                {
                  OFFSET -0.6113 -8.7231 -2.0637
                  CHANNELS 6 Xposition Yposition Zposition Zrotation Xrotation Yrotation
                  JOINT RightFinger31
                  {
                    OFFSET 0.1927 -3.8059 -0.2383
                    CHANNELS 6 Xposition Yposition Zposition Zrotation Xrotation Yrotation
                    JOINT RightFinger32
                    {
                      OFFSET 0.1091 -2.1688 -0.1362
                      CHANNELS 6 Xposition Yposition Zposition Zrotation Xrotation Yrotation
                      End Site
                      {
                        OFFSET 0.2358 -1.9176 -0.0906
                      }
                    }
                  }
                }
                JOINT RightFinger4
                {
                  OFFSET 0.6151 -8.0947 -3.564
                  CHANNELS 6 Xposition Yposition Zposition Zrotation Xrotation Yrotation
                  JOINT RightFinger41
                  {
                    OFFSET 0.4882 -2.341 -0.6462
                    CHANNELS 6 Xposition Yposition Zposition Zrotation Xrotation Yrotation
                    JOINT RightFinger42
                    {
                      OFFSET 0.3574 -1.7166 -0.4742
                      CHANNELS 6 Xposition Yposition Zposition Zrotation Xrotation Yrotation
                      End Site
                      {
                        OFFSET 0.4187 -1.5237 -0.3496
                      }
                    }
                  }
                }
                JOINT RightFinger0
                {
                  OFFSET 1.4199 -1.8761 1.4221
                  CHANNELS 6 Xposition Yposition Zposition Zrotation Xrotation Yrotation
                  JOINT RightFinger01
                  {
                    OFFSET 1.1472 -3.4929 2.6336
                    CHANNELS 6 Xposition Yposition Zposition Zrotation Xrotation Yrotation
                    JOINT RightFinger02
                    {
                      OFFSET 0.8229 -2.3 1.6571
                      CHANNELS 6 Xposition Yposition Zposition Zrotation Xrotation Yrotation
                      End Site
                      {
                        OFFSET 0.5822 -1.6914 1.1582
                      }
                    }
                  }
                }
              }
            }
          }
        }
      }
    }
  }
  JOINT RightHip
  {
    OFFSET -9.412 3.9771 -0.7758
    CHANNELS 6 Xposition Yposition Zposition Zrotation Xrotation Yrotation
    JOINT RightKnee
    {
      OFFSET -0.7531 -40.938 0
      CHANNELS 6 Xposition Yposition Zposition Zrotation Xrotation Yrotation
      JOINT RightAnkle
      {
        OFFSET 0 -40.1986 0
        CHANNELS 6 Xposition Yposition Zposition Zrotation Xrotation Yrotation
        JOINT RightToe
        {
          OFFSET 0 -4.4182 9.239
          CHANNELS 6 Xposition Yposition Zposition Zrotation Xrotation Yrotation
          End Site
          {
            OFFSET 0 0 6.1981
          }
        }
      }
    }
  }
  JOINT LeftHip
  {
    OFFSET 9.4119 3.9773 -0.7758
    CHANNELS 6 Xposition Yposition Zposition Zrotation Xrotation Yrotation
    JOINT LeftKnee
    {
      OFFSET 0.7532 -40.9383 0
      CHANNELS 6 Xposition Yposition Zposition Zrotation Xrotation Yrotation
      JOINT LeftAnkle
      {
        OFFSET 0 -40.1986 0
        CHANNELS 6 Xposition Yposition Zposition Zrotation Xrotation Yrotation
        JOINT LeftToe
        {
          OFFSET 0 -4.4182 9.239
          CHANNELS 6 Xposition Yposition Zposition Zrotation Xrotation Yrotation
          End Site
          {
            OFFSET 0 0 6.1981
          }
        }
      }
    }
  }
}
MOTION
Frames:	4
Frame Time:	0.0333333
5.72205e-005 65.662 3.42586 0 0 -0 0 8.7983 -4.7612 0 0 -0 0 8.0291 0.4195 0 0 -0 0 9.9351 -2.2114 0 0 -0 0 22.3885 -0.4656 0 0 -0 -0.0001 12.643 3.4389 0 0 -0 2.2603 21.606 7.4023 0 0 -12.5014 13.5163 -1.1332 -5.0146 88.1196 14.2451 10.6914 -0.0995 -28.05 -0.2431 -0.00160068 -0.00239207 0.000740045 0.0679 -23.3996 -0.1402 -8.4365e-005 7.00714e-005 -9.52055e-007 0.7932 -9.069 2.5189 9.93923e-017 -1.98785e-016 -1.59028e-015 -0.8272 -3.3923 0.5977 9.93923e-017 -5.96354e-016 -1.59028e-015 -0.5649 -2.3158 0.4082 -9.93923e-017 -5.96354e-016 -1.59028e-015 0.9159 -9.2044 0.2193 9.93923e-017 -1.98785e-016 -1.59028e-015 0.0117 -4.1944 -0.0248 -0.0128176 0.00232552 8.52707e-005 0.0071 -2.3249 -0.0142 9.93923e-017 5.96354e-016 -0 0.6113 -8.7231 -2.0637 9.93923e-017 -1.98785e-016 -1.59028e-015 -0.1927 -3.8059 -0.2383 -0.0160551 0.00299681 0.000857156 -0.1091 -2.1688 -0.1362 -2.48481e-016 0 3.18055e-015 -0.6151 -8.0947 -3.5641 9.93923e-017 -1.98785e-016 -1.59028e-015 -0.4882 -2.341 -0.6462 -0.0125865 0.0031206 0.00282719 -0.3575 -1.7167 -0.4742 0 1.98785e-016 -0 -1.42 -1.8761 1.4223 9.93923e-017 -1.98785e-016 -1.59028e-015 -1.1471 -3.4929 2.6334 9.93923e-017 -5.96354e-016 -1.59028e-015 -0.823 -2.3 1.6571 -9.93923e-017 -5.96354e-016 -1.59028e-015 -2.2603 21.606 7.4023 -0.865644 0.16582 7.03859 -13.5187 -1.1334 -5.0155 -88.0329 10.2057 -10.5567 0.0994 -28.0499 -0.2431 0.0015593 -0.00248883 -0.000788628 -0.0679 -23.3996 -0.1402 7.87605e-005 4.10553e-005 1.24965e-005 -0.7932 -9.0691 2.5189 -3.97569e-016 -7.95139e-016 3.18055e-015 0.8272 -3.3923 0.5977 -1.98785e-016 -3.97569e-016 3.18055e-015 0.565 -2.3158 0.4082 -1.98785e-016 0 3.18055e-015 -0.916 -9.2044 0.2193 -3.97569e-016 -7.95139e-016 3.18055e-015 -0.0117 -4.1944 -0.0248 0.0129473 0.00231697 -8.70038e-005 -0.0071 -2.3249 -0.0142 9.93923e-017 -7.95139e-016 1.59028e-015 -0.6113 -8.7231 -2.0637 -3.97569e-016 -7.95139e-016 3.18055e-015 0.1927 -3.8059 -0.2383 0.0163314 0.00303369 -0.000872333 0.1091 -2.1688 -0.1362 3.97569e-016 7.95139e-016 -3.18055e-015 0.6151 -8.0947 -3.564 -3.97569e-016 -7.95139e-016 3.18055e-015 0.4882 -2.341 -0.6462 0.0145763 0.00367772 -0.00326275 0.3574 -1.7166 -0.4742 9.93923e-017 -3.97569e-016 -0 1.4199 -1.8761 1.4221 -3.97569e-016 -7.95139e-016 3.18055e-015 1.1472 -3.4929 2.6336 -1.98785e-016 -3.97569e-016 3.18055e-015 0.8229 -2.3 1.6571 -1.98785e-016 0 3.18055e-015 -9.412 3.9771 -0.7758 3.42482 1.32465 -0.0626183 -0.7531 -40.938 0 0.000117508 0.717283 0.000978199 0 -40.1986 0 -3.4257 -2.04197 -0.0604716 8.88178e-016 -4.4182 9.239 6.47761e-025 0 -0 9.4119 3.9773 -0.7758 -3.42483 1.34017 0.0627307 0.7532 -40.9383 -2.22045e-016 -0.000193936 0.682302 -0.0013703 -8.88179e-016 -40.1986 0 3.42574 -2.02253 0.0595886 -8.88178e-016 -4.4182 9.239 -8.45714e-024 0 -7.40531e-025 
1.66034 57.5644 -9.80306 -10.364 -9.63282 132.457 8.88178e-016 8.7983 -4.7612 -0.804092 1.71468 -0.157586 0 8.0291 0.4195 -1.60454 3.43146 -0.291303 8.88178e-016 9.9351 -2.2114 -1.60453 3.43144 -0.291309 1.77636e-015 22.3885 -0.4656 -4.77885e-007 11.9147 1.13876e-005 -0.0001 12.643 3.4389 3.50681e-006 8.19971 -3.72906e-006 2.2603 21.606 7.4023 -22.2882 21.417 -26.4086 13.5163 -1.1332 -5.0146 56.9599 33.6071 21.0146 -0.0995 -28.05 -0.2431 -1.66225 -40.9029 22.6531 0.0679 -23.3996 -0.1402 -12.5342 -1.60837 -0.3475 0.7932 -9.06901 2.5189 -1.59028e-015 -1.59028e-015 1.59028e-014 -0.8272 -3.3923 0.5977 5.29669e-031 -1.59028e-015 1.90833e-014 -0.5649 -2.3158 0.4082 4.77083e-015 0 1.90833e-014 0.9159 -9.20441 0.2193 -1.59028e-015 -1.59028e-015 1.59028e-014 0.0117 -4.1944 -0.0248 -0.012847 0.00232529 9.20163e-005 0.0071 -2.3249 -0.0142 -1.05934e-030 6.36111e-015 9.54166e-015 0.6113 -8.7231 -2.0637 -1.59028e-015 -1.59028e-015 1.59028e-014 -0.1927 -3.8059 -0.2383 -0.0160232 0.00299545 0.000871021 -0.1091 -2.1688 -0.1362 -1.59028e-015 0 -6.36111e-015 -0.6151 -8.0947 -3.5641 -1.59028e-015 -1.59028e-015 1.59028e-014 -0.4882 -2.341 -0.6462 -0.0126929 0.00315122 0.00286212 -0.3575 -1.7167 -0.4742 -1.59028e-015 1.59028e-015 3.18055e-015 -1.42 -1.8761 1.4223 -1.59028e-015 -1.59028e-015 1.59028e-014 -1.1471 -3.4929 2.6334 5.29669e-031 -1.59028e-015 1.90833e-014 -0.823 -2.3 1.6571 4.77083e-015 0 1.90833e-014 -2.2603 21.606 7.4023 23.8861 21.8864 20.7796 -13.5187 -1.1334 -5.0155 -58.4454 29.7617 -17.5934 0.0994 -28.0499 -0.2431 4.66461 -39.833 -20.7511 -0.0679 -23.3996 -0.1402 12.525 -1.60652 0.596434 -0.7932 -9.0691 2.5189 4.77083e-015 1.18082e-008 3.18055e-015 0.8272 -3.3923 0.5977 3.18055e-015 7.95139e-015 3.18055e-015 0.565 -2.3158 0.4082 -5.56668e-006 -5.84283e-006 -2.58895e-006 -0.916 -9.2044 0.2193 4.77083e-015 1.18082e-008 3.18055e-015 -0.0117 -4.1944 -0.0248 0.0129423 0.00231593 -8.81651e-005 -0.0071 -2.3249 -0.0142 -8.11232e-006 -5.83197e-006 -2.13728e-007 -0.6113 -8.7231 -2.0637 4.77083e-015 1.18082e-008 3.18055e-015 0.1927 -3.8059 -0.2383 0.0162684 0.00301819 -0.000864901 0.1091 -2.1688 -0.1362 -6.04126e-006 -1.35125e-005 -9.9293e-006 0.6151 -8.0947 -3.564 4.77083e-015 1.18082e-008 3.18055e-015 0.4882 -2.341 -0.6462 0.0145969 0.00368234 -0.00326969 0.3574 -1.7166 -0.4742 -1.12931e-005 -7.20181e-006 -3.53462e-007 1.4199 -1.8761 1.4221 4.77083e-015 1.18082e-008 3.18055e-015 1.1472 -3.4929 2.6336 3.18055e-015 7.95139e-015 3.18055e-015 0.8229 -2.3 1.6571 -5.56668e-006 -5.84283e-006 -2.58895e-006 -9.412 3.9771 -0.7758 -15.7707 -42.0749 -20.6165 -0.7531 -40.938 -7.10543e-015 9.77855 29.15 -10.1207 0 -40.1986 0 8.60075 -2.42627 -0.232369 0 -4.4182 9.239 -2.50671e-006 -1.38479e-006 1.81768e-005 9.4119 3.9773 -0.7758 15.7515 -42.0724 20.5863 0.7532 -40.9383 0 -9.77807 29.1393 10.1218 1.77636e-015 -40.1986 0 -8.6179 -2.41341 0.233253 -1.77636e-015 -4.4182 9.239 8.33496e-007 1.83501e-007 -4.77121e-008 
-0.402144 54.1264 -13.6631 4.86616 -19.6917 -165.82 0 8.7983 -4.7612 -1.15662 2.46681 -0.303759 -8.88178e-016 8.0291 0.4195 -2.30331 4.93924 -0.558363 0 9.9351 -2.2114 -2.30332 4.93924 -0.558359 0 22.3885 -0.4656 -1.33325e-005 16.9544 -3.40468e-006 -0.0001 12.643 3.4389 1.97368e-006 11.6327 1.35223e-006 2.2603 21.606 7.4023 -28.2405 29.953 -34.4489 13.5163 -1.1332 -5.0146 40.8413 41.2921 26.577 -0.0995 -28.05 -0.2431 -7.54933 -58.936 26.9207 0.0679 -23.3996 -0.1402 -18.1736 -2.33356 -0.354286 0.7932 -9.06901 2.5189 7.95139e-016 3.97569e-016 -0 -0.827199 -3.3923 0.5977 1.19271e-015 3.97569e-016 -0 -0.5649 -2.3158 0.4082 -1.59028e-015 -1.19271e-015 -0 0.915899 -9.20441 0.2193 7.95139e-016 3.97569e-016 -0 0.0117 -4.1944 -0.0248 -0.012865 0.00233315 8.41585e-005 0.0071 -2.3249 -0.0142 1.59028e-015 -2.78299e-015 -0 0.6113 -8.7231 -2.0637 7.95139e-016 3.97569e-016 -0 -0.1927 -3.8059 -0.2383 -0.0160584 0.00299749 0.000856455 -0.1091 -2.1688 -0.1362 -7.35503e-015 -1.59028e-015 -3.18055e-015 -0.6151 -8.0947 -3.5641 7.95139e-016 3.97569e-016 -0 -0.4882 -2.341 -0.6462 -0.0126316 0.00313148 0.00283166 -0.3575 -1.7167 -0.4742 -3.18055e-015 2.38542e-015 -3.18055e-015 -1.42 -1.8761 1.4223 7.95139e-016 3.97569e-016 -0 -1.1471 -3.4929 2.6334 1.19271e-015 3.97569e-016 -0 -0.822999 -2.3 1.6571 -1.59028e-015 -1.19271e-015 -0 -2.2603 21.606 7.4023 30.9269 30.575 28.7955 -13.5187 -1.1334 -5.0155 -43.8831 38.11 -21.2797 0.0994 -28.0499 -0.2431 11.6782 -57.5031 -24.2137 -0.0679 -23.3996 -0.1402 18.1684 -2.30855 0.713703 -0.7932 -9.06911 2.5189 -2.98177e-015 -1.59028e-015 -0 0.8272 -3.3923 0.5977 -1.82756e-007 -8.54755e-007 8.28653e-007 0.565 -2.3158 0.4082 4.57205e-015 1.59028e-015 -0 -0.916 -9.20441 0.2193 -2.98177e-015 -1.59028e-015 -0 -0.0117 -4.1944 -0.0248 0.01296 0.00231398 -8.73388e-005 -0.0071 -2.3249 -0.0142 -2.78299e-015 -3.18055e-015 -0 -0.6113 -8.72311 -2.0637 -2.98177e-015 -1.59028e-015 -0 0.1927 -3.8059 -0.2383 0.0163085 0.00303224 -0.000871333 0.1091 -2.1688 -0.1362 -1.78906e-015 -3.18055e-015 -2.38542e-015 0.6151 -8.09471 -3.564 -2.98177e-015 -1.59028e-015 -0 0.4882 -2.341 -0.6462 0.0145629 0.00367299 -0.00325752 0.3574 -1.7166 -0.4742 -1.78906e-015 -4.77083e-015 -0 1.4199 -1.8761 1.4221 -2.98177e-015 -1.59028e-015 -0 1.1472 -3.4929 2.6336 -1.82756e-007 -8.54755e-007 8.28653e-007 0.8229 -2.3 1.6571 4.57205e-015 1.59028e-015 -0 -9.412 3.9771 -0.7758 -41.5357 -56.4744 -42.3135 -0.7531 -40.938 1.42109e-014 18.0525 41.0779 -17.0075 -1.77636e-015 -40.1986 0 14.172 -2.50244 -0.217452 -3.55271e-015 -4.4182 9.239 1.75601e-006 -4.97535e-007 6.57021e-007 9.4119 3.9773 -0.7758 41.4833 -56.4858 42.2523 0.7532 -40.9383 0 -18.0461 41.0613 17.007 0 -40.1986 0 -14.197 -2.48392 0.218055 -7.10543e-015 -4.4182 9.239 -1.16691e-006 -6.65724e-008 -7.45212e-006 
-0.000218882 54.8857 -13.1137 0.00123701 -18.4425 -179.992 2.1684e-019 8.7983 -4.7612 -1.07904 2.25052 -0.269954 0 8.0291 0.4195 -2.14993 4.50568 -0.497985 8.88178e-016 9.9351 -2.2114 -2.14994 4.5057 -0.497986 -8.88178e-016 22.3885 -0.4656 -8.47773e-005 15.1189 -2.5294e-005 -0.0001 12.643 3.4389 -7.40299e-007 10.2989 -9.13742e-007 2.2603 21.606 7.4023 -26.6033 27.9874 -32.8659 13.5163 -1.1332 -5.0146 43.8048 39.8072 25.7091 -0.0995 -28.05 -0.2431 -5.93447 -55.2331 26.3607 0.0679 -23.3996 -0.1402 -16.9205 -2.17102 -0.3607 0.7932 -9.069 2.5189 -4.28103e-006 -1.10428e-006 6.63948e-007 -0.8272 -3.3923 0.5977 -1.69421e-006 -6.47536e-007 5.32258e-008 -0.5649 -2.3158 0.4082 1.71241e-006 6.46832e-007 -2.65579e-007 0.9159 -9.2044 0.2193 -4.28103e-006 -1.10428e-006 6.63948e-007 0.0117 -4.1944 -0.0248 -0.01282 0.00232562 8.43395e-005 0.0071 -2.3249 -0.0142 -1.82048e-008 7.04532e-010 2.12352e-007 0.6113 -8.7231 -2.0637 -4.28103e-006 -1.10428e-006 6.63948e-007 -0.1927 -3.8059 -0.2383 -0.0160625 0.00299775 0.000856532 -0.1091 -2.1688 -0.1362 7.28944e-006 -1.57182e-006 5.04377e-007 -0.6151 -8.0947 -3.5641 -4.28103e-006 -1.10428e-006 6.63948e-007 -0.4882 -2.341 -0.6462 -0.0125762 0.00311671 0.00282238 -0.3575 -1.7167 -0.4742 -3.64155e-008 4.34427e-007 4.24703e-007 -1.42 -1.8761 1.4223 -4.28103e-006 -1.10428e-006 6.63948e-007 -1.1471 -3.4929 2.6334 -1.69421e-006 -6.47536e-007 5.32258e-008 -0.823 -2.3 1.6571 1.71241e-006 6.46832e-007 -2.65579e-007 -2.2603 21.606 7.4023 29.0122 28.5497 27.2449 -13.5187 -1.1334 -5.0155 -46.5412 36.5205 -20.7526 0.0994 -28.0499 -0.2431 9.88589 -53.9435 -23.767 -0.0679 -23.3996 -0.1402 16.9142 -2.15254 0.695767 -0.7932 -9.0691 2.5189 4.68083e-026 -3.37289e-009 7.95139e-016 0.8272 -3.3923 0.5977 -9.93923e-017 -3.18055e-015 1.19271e-015 0.565 -2.3158 0.4082 6.69965e-006 1.2273e-006 1.38292e-006 -0.916 -9.2044 0.2193 4.68083e-026 -3.37289e-009 7.95139e-016 -0.0117 -4.1944 -0.0248 0.0129364 0.00230979 -8.52057e-005 -0.0071 -2.3249 -0.0142 -1.98785e-016 -1.68674e-009 -1.19271e-015 -0.6113 -8.7231 -2.0637 4.68083e-026 -3.37289e-009 7.95139e-016 0.1927 -3.8059 -0.2383 0.0163066 0.00302643 -0.000871459 0.1091 -2.1688 -0.1362 -1.37839e-007 4.45123e-007 1.96341e-007 0.6151 -8.0947 -3.564 4.68083e-026 -3.37289e-009 7.95139e-016 0.4882 -2.341 -0.6462 0.0146158 0.00368874 -0.00326788 0.3574 -1.7166 -0.4742 2.46493e-014 -1.68859e-009 3.57812e-015 1.4199 -1.8761 1.4221 4.68083e-026 -3.37289e-009 7.95139e-016 1.1472 -3.4929 2.6336 -9.93923e-017 -3.18055e-015 1.19271e-015 0.8229 -2.3 1.6571 6.69965e-006 1.2273e-006 1.38292e-006 -9.412 3.9771 -0.7758 -33.9933 -53.4357 -35.8724 -0.7531 -40.938 -7.10543e-015 15.9321 38.4888 -15.2416 1.77636e-015 -40.1986 7.10543e-015 12.9308 -2.47624 -0.227806 1.77636e-015 -4.4182 9.239 -5.56112e-006 -2.41508e-006 -2.6378e-006 9.4119 3.9773 -0.7758 33.9556 -53.4415 35.8241 0.7532 -40.9383 0 -15.9312 38.4747 15.2422 0 -40.1986 -7.10543e-015 -12.954 -2.45917 0.228489 -5.32907e-015 -4.4182 9.239 9.80813e-007 -4.2085e-007 -3.2654e-006 
